<?xml version="1.0" encoding="utf-8"?>
<!-- Generator: Adobe Illustrator 17.1.0, SVG Export Plug-In . SVG Version: 6.00 Build 0)  -->
<!DOCTYPE svg PUBLIC "-//W3C//DTD SVG 1.1//EN" "http://www.w3.org/Graphics/SVG/1.1/DTD/svg11.dtd">
<svg version="1.1" id="Layer_1" xmlns="http://www.w3.org/2000/svg" xmlns:xlink="http://www.w3.org/1999/xlink" x="0px" y="0px"
	 viewBox="0 0 31 31" enable-background="new 0 0 31 31" xml:space="preserve">
<path fill="#2C70B8" d="M0,9.3v0.8h6V9.3H0z M6.9,9.3v0.8h8.6c0,0-0.9-0.8-2-0.8H6.9z M17.2,9.3v0.8h5.2l-0.3-0.8H17.2z M26.1,9.3
	l-0.3,0.8H31V9.3H26.1z M0,10.9v0.8h6v-0.8H0z M6.9,11v0.8h9.6c0,0-0.1-0.7-0.3-0.8H6.9z M17.2,11v0.8h5.8L22.7,11H17.2z M25.5,11
	l-0.3,0.8H31V11H25.5z M1.7,12.6v0.8h2.6v-0.8H1.7z M8.6,12.6v0.8h2.6v-0.8H8.6z M13.8,12.6v0.8h2.6c0,0,0.2-0.4,0.2-0.8H13.8z
	 M18.9,12.6v0.8h4.6l-0.3-0.8H18.9z M24.9,12.6l-0.3,0.8h4.7v-0.8H24.9z M1.7,14.3v0.8h2.6v-0.8H1.7z M8.6,14.3v0.8h6.7
	c0,0,0.6-0.4,0.7-0.8H8.6z M18.9,14.3v0.8h2.6v-0.5l0.2,0.5h4.8l0.2-0.5v0.5h2.6v-0.8h-4.9L24.1,15l-0.3-0.7H18.9z M1.7,15.9v0.8
	h2.6v-0.8H1.7z M8.6,15.9v0.8H16c-0.2-0.4-0.7-0.8-0.7-0.8H8.6z M18.9,15.9v0.8h2.6v-0.8H18.9z M22,15.9l0.3,0.8h3.6l0.3-0.8H22z
	 M26.7,15.9v0.8h2.6v-0.8H26.7z M1.7,17.6v0.8h2.6v-0.8H1.7z M8.6,17.6v0.8h2.6v-0.8H8.6z M13.8,17.6v0.8h2.8c0-0.4-0.2-0.8-0.2-0.8
	H13.8z M18.9,17.6v0.8h2.6v-0.8H18.9z M22.6,17.6l0.3,0.8h2.4l0.3-0.8H22.6z M26.7,17.6v0.8h2.6v-0.8H26.7z M0,19.2v0.8h6v-0.8H0z
	 M6.9,19.2v0.8h9.3c0.2-0.2,0.3-0.8,0.3-0.8H6.9z M17.2,19.2v0.8h4.3v-0.8H17.2z M23.2,19.2l0.3,0.8h1.2l0.3-0.8H23.2z M26.7,19.2
	v0.8H31v-0.8H26.7z M0,20.9v0.8h6v-0.8H0z M6.9,20.9v0.8h6.6c1.2,0,2-0.8,2-0.8H6.9z M17.2,20.9v0.8h4.3v-0.8H17.2z M23.8,20.9
	l0.3,0.8l0.1,0l0.3-0.8H23.8z M26.7,20.9v0.8H31v-0.8H26.7z"/>
</svg>
